<mxfile host="65bd71144e">
    <diagram id="XfmmEw-LAx5hRLRhpUJB" name="Страница 1">
        <mxGraphModel dx="820" dy="434" grid="1" gridSize="10" guides="1" tooltips="1" connect="1" arrows="1" fold="1" page="1" pageScale="1" pageWidth="827" pageHeight="1169" background="none" math="0" shadow="0">
            <root>
                <mxCell id="0"/>
                <mxCell id="1" parent="0"/>
                <mxCell id="8" value="" style="edgeStyle=none;html=1;" edge="1" parent="1" source="2" target="7">
                    <mxGeometry relative="1" as="geometry"/>
                </mxCell>
                <mxCell id="2" value="start" style="ellipse;whiteSpace=wrap;html=1;" vertex="1" parent="1">
                    <mxGeometry x="50" y="10" width="120" height="80" as="geometry"/>
                </mxCell>
                <mxCell id="5" style="edgeStyle=none;html=1;" edge="1" parent="1">
                    <mxGeometry relative="1" as="geometry">
                        <mxPoint x="60" y="145" as="sourcePoint"/>
                        <mxPoint x="60" y="145" as="targetPoint"/>
                    </mxGeometry>
                </mxCell>
                <mxCell id="9" style="edgeStyle=none;html=1;entryX=0.5;entryY=0;entryDx=0;entryDy=0;" edge="1" parent="1" source="7" target="16">
                    <mxGeometry relative="1" as="geometry">
                        <mxPoint x="340" y="70" as="targetPoint"/>
                        <Array as="points">
                            <mxPoint x="220" y="70"/>
                            <mxPoint x="335" y="70"/>
                        </Array>
                    </mxGeometry>
                </mxCell>
                <mxCell id="7" value="string[]array1&lt;br&gt;string[]array2&lt;br&gt;int count=0" style="shape=parallelogram;perimeter=parallelogramPerimeter;whiteSpace=wrap;html=1;fixedSize=1;strokeColor=default;fillColor=none;" vertex="1" parent="1">
                    <mxGeometry x="50" y="120" width="120" height="60" as="geometry"/>
                </mxCell>
                <mxCell id="22" style="edgeStyle=none;html=1;entryX=0;entryY=0.5;entryDx=0;entryDy=0;fontColor=#FFFFFF;" edge="1" parent="1" source="16" target="19">
                    <mxGeometry relative="1" as="geometry"/>
                </mxCell>
                <mxCell id="23" style="edgeStyle=none;html=1;entryX=0.5;entryY=0;entryDx=0;entryDy=0;fontColor=#FFFFFF;" edge="1" parent="1" target="18">
                    <mxGeometry relative="1" as="geometry">
                        <mxPoint x="345" y="180" as="sourcePoint"/>
                    </mxGeometry>
                </mxCell>
                <mxCell id="16" value="for&amp;nbsp; (int i = o&lt;br&gt;i&amp;lt;array1.length&lt;br&gt;i++)" style="rounded=0;whiteSpace=wrap;html=1;labelBackgroundColor=#000000;fontColor=#FFFFFF;strokeColor=#FFFFFF;fillColor=default;strokeWidth=1;" vertex="1" parent="1">
                    <mxGeometry x="270" y="120" width="130" height="60" as="geometry"/>
                </mxCell>
                <mxCell id="27" style="edgeStyle=none;html=1;entryX=0;entryY=0.5;entryDx=0;entryDy=0;fontColor=#FFFFFF;" edge="1" parent="1" source="17" target="16">
                    <mxGeometry relative="1" as="geometry">
                        <Array as="points">
                            <mxPoint x="190" y="160"/>
                        </Array>
                    </mxGeometry>
                </mxCell>
                <mxCell id="17" value="array2[count]=arry1[i]&lt;br&gt;count+1" style="rounded=0;whiteSpace=wrap;html=1;labelBackgroundColor=#;fontColor=#FFFFFF;strokeColor=#FFFFFF;strokeWidth=1;fillColor=default;" vertex="1" parent="1">
                    <mxGeometry x="70" y="240" width="120" height="60" as="geometry"/>
                </mxCell>
                <mxCell id="26" style="edgeStyle=none;html=1;entryX=0.062;entryY=1.043;entryDx=0;entryDy=0;entryPerimeter=0;fontColor=#FFFFFF;" edge="1" parent="1" target="16">
                    <mxGeometry relative="1" as="geometry">
                        <mxPoint x="260" y="300" as="sourcePoint"/>
                    </mxGeometry>
                </mxCell>
                <mxCell id="33" style="edgeStyle=none;html=1;entryX=1;entryY=0.5;entryDx=0;entryDy=0;fontColor=#FFFFFF;" edge="1" parent="1" source="18" target="17">
                    <mxGeometry relative="1" as="geometry">
                        <Array as="points">
                            <mxPoint x="230" y="300"/>
                        </Array>
                    </mxGeometry>
                </mxCell>
                <mxCell id="18" value="if (arry1[i]length&amp;lt;=3)" style="rhombus;whiteSpace=wrap;html=1;labelBackgroundColor=#;fontColor=#FFFFFF;strokeColor=#FFFFFF;strokeWidth=1;fillColor=default;" vertex="1" parent="1">
                    <mxGeometry x="260" y="240" width="170" height="120" as="geometry"/>
                </mxCell>
                <mxCell id="21" style="edgeStyle=none;html=1;entryX=0;entryY=0.5;entryDx=0;entryDy=0;fontColor=#FFFFFF;" edge="1" parent="1" source="19" target="20">
                    <mxGeometry relative="1" as="geometry"/>
                </mxCell>
                <mxCell id="19" value="Вывод" style="shape=document;whiteSpace=wrap;html=1;boundedLbl=1;labelBackgroundColor=#;fontColor=#FFFFFF;strokeColor=#FFFFFF;strokeWidth=1;fillColor=default;" vertex="1" parent="1">
                    <mxGeometry x="480" y="110" width="120" height="80" as="geometry"/>
                </mxCell>
                <mxCell id="20" value="Конец" style="ellipse;whiteSpace=wrap;html=1;labelBackgroundColor=#;fontColor=#FFFFFF;strokeColor=#FFFFFF;strokeWidth=1;fillColor=default;" vertex="1" parent="1">
                    <mxGeometry x="670" y="110" width="120" height="80" as="geometry"/>
                </mxCell>
                <mxCell id="28" value="No" style="text;html=1;strokeColor=none;fillColor=none;align=center;verticalAlign=middle;whiteSpace=wrap;rounded=0;labelBackgroundColor=#;fontColor=#FFFFFF;" vertex="1" parent="1">
                    <mxGeometry x="250" y="230" width="60" height="30" as="geometry"/>
                </mxCell>
                <mxCell id="29" value="Yes" style="text;html=1;strokeColor=none;fillColor=none;align=center;verticalAlign=middle;whiteSpace=wrap;rounded=0;labelBackgroundColor=#;fontColor=#FFFFFF;" vertex="1" parent="1">
                    <mxGeometry x="210" y="280" width="60" height="30" as="geometry"/>
                </mxCell>
            </root>
        </mxGraphModel>
    </diagram>
</mxfile>